<mxfile host="app.diagrams.net" modified="2023-09-28T15:39:45.243Z" agent="Mozilla/5.0 (Windows NT 10.0; Win64; x64) AppleWebKit/537.36 (KHTML, like Gecko) Chrome/117.0.0.0 Safari/537.36 Edg/117.0.2045.43" etag="daRNd3TgI3GzvzHFE5Jr" version="22.0.0" type="dropbox">
  <diagram name="PÃ¡gina-1" id="7z0_Xmlaq7gDHZW4FBW3">
    <mxGraphModel dx="680" dy="697" grid="1" gridSize="10" guides="1" tooltips="1" connect="1" arrows="1" fold="1" page="1" pageScale="1" pageWidth="1654" pageHeight="1169" math="0" shadow="0">
      <root>
        <mxCell id="0" />
        <mxCell id="1" parent="0" />
        <mxCell id="xIbmi8kUt-31YFpQxfeo-1" value="" style="ellipse;whiteSpace=wrap;html=1;aspect=fixed;" vertex="1" parent="1">
          <mxGeometry x="130" y="130" width="80" height="80" as="geometry" />
        </mxCell>
      </root>
    </mxGraphModel>
  </diagram>
</mxfile>
